<svg xmlns="http://www.w3.org/2000/svg" x="0" y="0" viewBox="0 0 330 330" class="undefined">
<style>
  .a{
    fill:#FFDA44;
  }
  .b{
    fill:#CCF8F3;
  }
  .c{
    fill:#EA348B;
  }
  .d{
    fill:#00D7DF;
  }
  .e{
    fill:#B02768;
  }
  .f{
    fill:#FF9811;
  }
  .g{
    fill:#FFF0B4;
  }
</style>
  <g class="undefined">
    <path d="M195 90c8.2 0 13.9 0 15 0 24.9 0 45-20.1 45-45S234.9 0 210 0s-45 20.1-45 45c0-24.9-20.1-45-45-45S75 20.1 75 45s20.1 45 45 45c1.1 0 6.8 0 15 0C151.7 90 178.3 90 195 90zM195 45c0-8.3 6.7-15 15-15s15 6.7 15 15 -6.7 15-15 15h-15V45zM105 45c0-8.3 6.7-15 15-15s15 6.7 15 15v15h-15C111.7 60 105 53.3 105 45z" class="a"/>
    <rect x="45" y="170" width="90" height="160" class="b"/>
    <path d="M135 150V90c-8.2 0-13.9 0-15 0H35v80h10 90V150z" class="c"/>
    <rect x="195" y="170" width="90" height="160" class="d"/>
    <path d="M210 90c-1.1 0-6.8 0-15 0v60 20h90 10V90H210z" class="e"/>
    <rect x="135" y="170" width="60" height="160" class="a"/>
    <polygon points="135 150 135 170 195 170 195 150 165 120 " class="f"/>
    <path d="M135 150l30-30 30 30V90c-16.7 0-43.3 0-60 0V150z" class="g"/>
  </g>
</svg>
