<?xml version="1.0" encoding="utf-8"?>
<!-- Generator: Adobe Illustrator 23.0.5, SVG Export Plug-In . SVG Version: 6.00 Build 0)  -->
<svg version="1.1" id="Capa_1" xmlns="http://www.w3.org/2000/svg" xmlns:xlink="http://www.w3.org/1999/xlink" x="0px" y="0px"
	 viewBox="0 0 199.765 201.362" style="enable-background:new 0 0 199.765 201.362;" xml:space="preserve">
<style type="text/css">
	.st0{stroke:#E0007E;stroke-width:2;}
	.st1{stroke:#E72067;stroke-width:2;}
	.st2{fill:#FFFFFF;}
	.st3{fill:#E39FC6;}
	.st4{fill:none;stroke:#A41640;stroke-width:2;}
	.st5{fill:none;}
	.st6{fill:#432918;stroke:#000000;}
	.st7{fill:#B17F4A;stroke:#000000;}
	.st8{display:none;fill:#5D4116;stroke:#000000;}
	.st9{stroke:#000000;stroke-width:0.5;}
</style>
<path class="st0" d="M32.31,55.848c-11.068-12.008-8.291-30.225,2.528-37.581c10.704-7.279,28.434-3.352,35.698,11.066"/>
<path class="st1" d="M106.665,27.244c3.116-16.031,19.437-24.586,31.773-20.23c12.205,4.31,19.547,20.92,12.236,35.315"/>
<path class="st1" d="M41.391,132.638c-13.876,8.611-31.245,2.455-36.434-9.554c-5.135-11.882,2.058-28.557,17.586-32.979"/>
<path class="st1" d="M166.661,75.431c15.8-4.131,30.577,6.876,31.991,19.882c1.399,12.868-10.395,26.677-26.536,26.318"/>
<path class="st1" d="M87.933,170.911c-0.743,16.314-15.64,27.16-28.479,24.651c-12.704-2.482-22.391-17.842-17.259-33.15"/>
<path class="st1" d="M155.247,148.956c9.841,13.033,5.296,30.89-6.19,37.154c-11.364,6.197-28.625,0.556-34.445-14.503"/>
<path class="st1" d="M56.744,58.1C45.954,31.693,62.508,5.334,82.615,1.127c19.581-4.097,45.491,12.195,48.509,39.522"/>
<path class="st1" d="M33.1,113.512c-27.537-7.447-38.444-36.6-29.586-55.136c8.625-18.05,37.297-28.759,60.85-14.576"/>
<path class="st1" d="M87.783,160.624c-16.667,23.151-47.794,23.092-62.023,8.275c-13.856-14.429-13.783-45.036,7.786-62.085"/>
<path class="st1" d="M119.426,39.351c18.802-21.453,49.781-18.423,62.529-2.314c12.415,15.686,9.419,46.146-13.679,61.058"/>
<path class="st1" d="M164.38,92.884c27.188,8.634,36.821,38.232,27.169,56.366c-9.4,17.659-38.508,27.116-61.424,11.925"/>
<path class="st1" d="M139.104,152.353c3.684,28.287-19.057,49.541-39.572,48.47c-19.978-1.043-40.865-23.415-36.799-50.606"/>
<g>
	<circle class="st2" cx="100.86" cy="98.729" r="69.429"/>
	<circle class="st3" cx="100.86" cy="98.729" r="69.429"/>
	<circle class="st4" cx="100.86" cy="98.729" r="69.429"/>
</g>
<g>
	<rect x="80.783" y="121.628" class="st5" width="58.5" height="1.929"/>
</g>
<g>
	<g>
		<path class="st6" d="M121.117,53.885c0.98,0.668,1.808,1.533,2.43,2.539c4.99,8.161,5.527,24.976-19.988,40.344
			s-40.295,7.131-45.285-1.03c-0.612-1.012-1.003-2.141-1.148-3.312L121.117,53.885z"/>
		<path class="st7" d="M116.427,46.448c1.084,0.687,1.996,1.609,2.67,2.697c4.99,8.161,5.527,24.976-19.988,40.344
			s-40.295,7.131-45.285-1.03c-0.662-1.095-1.064-2.324-1.178-3.595L116.427,46.448z"/>
		<path class="st6" d="M113.399,40.14c-0.108-0.125-0.221-0.232-0.342-0.35c-4.199-3.999-13.188-4.145-23.632-0.856
			C77.794,42.762,67.189,49.15,58.397,57.622c-7.762,7.677-11.781,15.657-10.146,21.201c0.05,0.16,0.093,0.309,0.155,0.463
			c0.175,0.495,0.402,0.971,0.676,1.419c0.968,1.558,2.17,2.961,3.564,4.159c6.906,5.974,20.537,9.122,41.494-3.501
			s24.438-26.076,22.287-34.915c-0.428-1.78-1.126-3.486-2.072-5.058C114.081,40.942,113.76,40.522,113.399,40.14z"/>
		<path class="st8" d="M113.674,40.91c-0.083-0.258-0.178-0.519-0.277-0.767c-0.103-0.125-0.216-0.241-0.34-0.347
			c-0.329-0.312-0.68-0.6-1.05-0.864l-0.012-0.003c-4.281-2.959-11.991-3.026-20.921-0.49c-0.543,0.157-1.086,0.315-1.647,0.494
			c-0.546,0.17-1.111,0.361-1.678,0.565c-4.798,1.67-9.417,3.809-13.789,6.385c-0.368,0.2-0.741,0.425-1.115,0.65
			c-0.374,0.225-0.747,0.45-1.096,0.681c-4.321,2.663-8.369,5.74-12.085,9.188c-0.432,0.409-0.864,0.817-1.267,1.219
			c-0.419,0.412-0.811,0.817-1.202,1.222c-6.39,6.692-9.89,13.51-9.222,18.645l-0.003,0.012c0.065,0.447,0.16,0.889,0.287,1.323
			c0.037,0.157,0.089,0.311,0.153,0.459c0.176,0.201,0.365,0.406,0.557,0.598c3.213,3.199,9.178,5.516,18.389,3.84
			c1.012-0.175,2.064-0.405,3.169-0.689c6.423-1.817,12.564-4.499,18.252-7.97c0.361-0.228,0.732-0.441,1.106-0.666
			s0.735-0.453,1.106-0.666c5.736-3.404,10.974-7.576,15.565-12.398c0.748-0.832,1.44-1.652,2.063-2.462
			C114.366,51.536,115.05,45.216,113.674,40.91z M88.299,59.111l-0.003,0.012c-0.535,0.396-1.095,0.787-1.684,1.184
			c-0.865,0.606-1.78,1.2-2.736,1.797c-0.349,0.231-0.722,0.456-1.096,0.681s-0.747,0.45-1.115,0.65
			c-0.962,0.569-1.925,1.085-2.853,1.57c-0.626,0.335-1.246,0.645-1.851,0.945l-0.012-0.003c-0.617,0.297-1.216,0.573-1.795,0.827
			c-2.735,1.349-5.684,2.224-8.718,2.588c-0.663,0.061-1.331-0.053-1.937-0.329c-0.213-0.112-0.393-0.279-0.519-0.483
			c-0.112-0.179-0.172-0.385-0.173-0.596c-0.137-1.774,2.559-4.978,6.904-8.412c0.51-0.403,1.033-0.802,1.583-1.208l0.012,0.003
			c0.535-0.396,1.083-0.79,1.658-1.19c0.865-0.606,1.783-1.212,2.752-1.806c0.349-0.231,0.722-0.456,1.096-0.681
			c0.374-0.225,0.747-0.45,1.115-0.65c0.975-0.566,1.928-1.098,2.869-1.58c0.623-0.322,1.243-0.632,1.845-0.92l0.003-0.012
			c0.617-0.297,1.215-0.573,1.811-0.836c5.075-2.24,9.183-3.134,10.706-2.194c0.186,0.1,0.343,0.248,0.453,0.427
			c0.124,0.205,0.191,0.44,0.192,0.68c-0.033,0.661-0.24,1.302-0.601,1.858c-1.726,2.504-3.869,4.695-6.338,6.48
			C89.372,58.305,88.85,58.704,88.299,59.111z"/>
	</g>
</g>
<g>
	<path class="st9" d="M65.68,124.969c0.158,0.113,0.264,0.259,0.314,0.439c0.024,0.223-0.053,0.413-0.232,0.57
		c-0.18,0.156-0.379,0.277-0.601,0.363c-0.269,0.107-0.534,0.211-0.796,0.313c-0.258,0.1-0.508,0.199-0.754,0.3
		c-1.52,0.607-2.981,1.334-4.387,2.179c-1.404,0.845-2.727,1.802-3.967,2.87c0.143,0.185,0.261,0.38,0.354,0.586
		c2.54,5.574,5.593,10.849,9.161,15.822c0.016,0.025,0.029,0.047,0.041,0.066c0.183,0.249,0.357,0.5,0.525,0.752
		c0.167,0.253,0.312,0.519,0.432,0.796c0.15,0.338,0.242,0.697,0.275,1.073c0.004,0.006,0.006,0.018,0.009,0.035
		c0.021,0.19,0.017,0.361-0.017,0.513c-0.032,0.153-0.148,0.248-0.346,0.284c-0.356,0.038-0.701-0.006-1.037-0.132
		c-0.335-0.126-0.637-0.304-0.904-0.534c-0.301-0.253-0.566-0.541-0.799-0.864c-0.234-0.323-0.452-0.653-0.656-0.994
		c-1.586-2.559-3.074-5.171-4.463-7.839s-2.623-5.405-3.701-8.21c-0.027-0.072-0.057-0.146-0.088-0.224
		c-1.698,1.674-3.093,3.573-4.183,5.696c-0.124,0.254-0.282,0.481-0.474,0.682c-0.049,0.049-0.113,0.1-0.189,0.152
		c-0.078,0.053-0.156,0.089-0.238,0.109c-0.08,0.02-0.154,0.002-0.224-0.051c-0.038-0.047-0.063-0.102-0.076-0.165
		c-0.095-0.347-0.099-0.7-0.014-1.058c0.085-0.359,0.198-0.698,0.343-1.018c0.613-1.418,1.386-2.737,2.318-3.958
		c0.932-1.22,1.982-2.343,3.15-3.367c1.17-1.024,2.412-1.954,3.728-2.787c0.421-0.273,0.854-0.535,1.297-0.786
		c0.623-0.373,1.267-0.714,1.93-1.024c0.663-0.309,1.349-0.562,2.056-0.759c0.377-0.104,0.762-0.157,1.153-0.159
		C65.014,124.642,65.366,124.75,65.68,124.969z"/>
	<path class="st9" d="M63.738,137.372c-0.274,0.04-0.515,0.01-0.72-0.092s-0.371-0.24-0.5-0.416
		c-0.211-0.283-0.381-0.587-0.506-0.915c-0.109-0.259-0.179-0.516-0.207-0.773c-0.027-0.256,0.047-0.546,0.225-0.869
		c0.048-0.092,0.116-0.174,0.203-0.247c0.109-0.078,0.226-0.113,0.346-0.104c0.119,0.008,0.238,0.042,0.355,0.102
		c0.244,0.121,0.445,0.278,0.605,0.469c0.159,0.191,0.292,0.4,0.398,0.625c0.111,0.221,0.201,0.456,0.27,0.705
		c0.068,0.25,0.08,0.516,0.037,0.799c-0.018,0.072-0.043,0.162-0.078,0.267c-0.035,0.106-0.088,0.203-0.156,0.29
		C63.942,137.303,63.851,137.354,63.738,137.372z M70.979,138.52c0.234-0.103,0.409-0.106,0.523-0.01
		c0.113,0.097,0.293,0.976,0.539,2.638c0.246,1.661,0.373,2.569,0.381,2.723c0.006,0.05,0.012,0.094,0.019,0.134
		c0.01,0.1,0.022,0.198,0.038,0.294c0.082,0.454,0.119,0.925,0.111,1.415c-0.006,0.49-0.144,0.979-0.413,1.465
		c-0.319,0.492-0.727,0.818-1.224,0.979c-0.494,0.16-0.982,0.184-1.461,0.068c-0.466-0.123-0.875-0.31-1.227-0.563
		c-0.354-0.252-0.67-0.532-0.952-0.841c-1.097-1.186-1.901-2.555-2.415-4.106c-0.046-0.13-0.092-0.261-0.139-0.391
		c-0.262-0.701-0.475-1.421-0.637-2.159c-0.105-0.437-0.163-0.887-0.171-1.351c0.028-0.238,0.14-0.397,0.337-0.477
		c0.198-0.08,0.408-0.104,0.629-0.076c0.143,0.017,0.27,0.048,0.378,0.095c0.258,0.13,0.449,0.308,0.573,0.535
		c0.125,0.227,0.229,0.469,0.311,0.727c0.049,0.164,0.105,0.317,0.17,0.463c0.143,0.326,0.281,0.651,0.412,0.975
		c0.254,0.671,0.555,1.322,0.905,1.951c0.324,0.574,0.737,1.226,1.238,1.955s1.007,1.317,1.518,1.766
		c0.132,0.085,0.282,0.088,0.45,0.01c0.167-0.078,0.274-0.199,0.322-0.362c0.002-0.576,0.006-1.046,0.01-1.411
		c0.006-0.366-0.195-2.312-0.603-5.838c0.024-0.103,0.06-0.214,0.109-0.333C70.761,138.674,70.85,138.583,70.979,138.52z"/>
	<path class="st9" d="M74.825,125.374c0.104-0.003,0.182,0.041,0.231,0.133c0.046,0.104,0.035,0.203-0.032,0.298
		c-0.068,0.096-0.147,0.177-0.239,0.243c-1.964,1.504-3.87,3.079-5.72,4.725c1.563,2.846,3.152,5.676,4.764,8.492
		c0.379,0.673,0.773,1.333,1.185,1.981c0.411,0.648,0.87,1.259,1.379,1.833c0.222-0.607,0.341-1.232,0.361-1.877
		s0.007-1.296-0.044-1.954c-0.039-0.585-0.059-1.17-0.054-1.755c-0.222-1.328-0.324-2.044-0.305-2.148
		c0.018-0.104,0.059-0.198,0.121-0.281c0.063-0.083,0.145-0.138,0.243-0.159c0.102-0.024,0.201-0.008,0.295,0.047
		c0.078,0.04,0.137,0.1,0.174,0.183c0.04,0.081,0.067,0.166,0.086,0.251c0.012,0.046,0.025,0.09,0.043,0.133
		c0.301,1.437,0.479,2.266,0.538,2.485c0.124,0.452,0.22,0.91,0.288,1.371c0.119,0.923,0.125,1.848,0.016,2.773
		c-0.04,0.29-0.086,0.576-0.139,0.856c-0.074,0.364-0.193,0.71-0.361,1.042c-0.169,0.331-0.414,0.58-0.734,0.745
		c-0.271,0.117-0.551,0.151-0.842,0.103c-0.291-0.047-0.562-0.151-0.813-0.312c-0.24-0.159-0.458-0.347-0.652-0.565
		c-0.194-0.219-0.379-0.446-0.553-0.681c-1.285-1.713-2.484-3.484-3.596-5.314s-2.16-3.701-3.145-5.61
		c-1.268,1.236-2.463,2.542-3.588,3.918c-0.016,0.019-0.035,0.043-0.059,0.077c-0.074,0.091-0.17,0.202-0.283,0.33
		s-0.232,0.225-0.355,0.289c-0.123,0.064-0.239,0.06-0.348-0.014c-0.105-0.084-0.147-0.201-0.127-0.351
		c0.021-0.149,0.069-0.299,0.144-0.447c0.075-0.149,0.143-0.26,0.202-0.333c0.387-0.525,0.796-1.029,1.227-1.511
		c0.869-0.995,1.779-1.95,2.727-2.861c-0.537-1.068-1.059-2.146-1.563-3.235c-0.079-0.154-0.149-0.313-0.212-0.477
		c-0.064-0.164-0.105-0.333-0.125-0.505c-0.014-0.177,0.008-0.35,0.066-0.519c0.059-0.169,0.152-0.308,0.287-0.418
		c0.143-0.099,0.301-0.149,0.475-0.153c0.285-0.01,0.541,0.077,0.771,0.259c0.176,0.137,0.324,0.3,0.447,0.489
		c0.122,0.188,0.232,0.384,0.333,0.586c0.41,0.794,0.828,1.583,1.257,2.367c1.811-1.595,3.727-3.051,5.744-4.369
		c0.072-0.054,0.152-0.096,0.24-0.124C74.669,125.379,74.752,125.367,74.825,125.374z"/>
	<path class="st9" d="M75.936,129.728c-0.275,0.04-0.516,0.009-0.721-0.093c-0.205-0.101-0.371-0.24-0.5-0.416
		c-0.211-0.283-0.381-0.587-0.506-0.915c-0.109-0.258-0.179-0.516-0.205-0.773c-0.029-0.255,0.046-0.545,0.223-0.869
		c0.048-0.092,0.117-0.174,0.203-0.247c0.11-0.078,0.227-0.113,0.346-0.104c0.12,0.008,0.239,0.042,0.355,0.102
		c0.244,0.121,0.445,0.277,0.605,0.468c0.16,0.192,0.293,0.4,0.398,0.626c0.113,0.22,0.203,0.456,0.27,0.705
		c0.068,0.25,0.08,0.515,0.037,0.799c-0.017,0.072-0.042,0.162-0.078,0.267c-0.035,0.106-0.087,0.203-0.156,0.291
		C76.139,129.658,76.049,129.71,75.936,129.728z M83.176,130.875c0.235-0.103,0.41-0.106,0.523-0.01s0.293,0.976,0.539,2.638
		c0.246,1.661,0.373,2.568,0.382,2.723c0.005,0.049,0.011,0.095,0.019,0.134c0.01,0.1,0.022,0.198,0.037,0.294
		c0.082,0.453,0.119,0.925,0.112,1.415s-0.145,0.979-0.413,1.465c-0.319,0.492-0.727,0.818-1.224,0.979
		c-0.495,0.16-0.981,0.183-1.461,0.068c-0.466-0.124-0.875-0.311-1.228-0.563c-0.354-0.251-0.67-0.533-0.951-0.841
		c-1.098-1.186-1.902-2.555-2.415-4.106c-0.046-0.13-0.093-0.26-0.139-0.39c-0.263-0.701-0.476-1.421-0.638-2.159
		c-0.105-0.438-0.162-0.887-0.171-1.351c0.028-0.239,0.141-0.397,0.338-0.477c0.198-0.08,0.407-0.105,0.628-0.076
		c0.144,0.017,0.27,0.048,0.379,0.095c0.257,0.13,0.448,0.308,0.573,0.535c0.124,0.226,0.228,0.469,0.31,0.727
		c0.05,0.164,0.106,0.318,0.171,0.463c0.143,0.327,0.28,0.651,0.413,0.975c0.252,0.672,0.554,1.322,0.904,1.951
		c0.324,0.574,0.736,1.226,1.238,1.955c0.5,0.729,1.006,1.318,1.518,1.766c0.131,0.085,0.281,0.088,0.449,0.01
		c0.168-0.078,0.275-0.199,0.323-0.361c0.001-0.576,0.005-1.046,0.01-1.412c0.005-0.365-0.196-2.311-0.603-5.837
		c0.023-0.103,0.06-0.215,0.109-0.333C82.959,131.03,83.047,130.938,83.176,130.875z"/>
	<path class="st9" d="M92.682,120.371c0.041,0.037,0.072,0.067,0.098,0.092c0.023,0.024,0.044,0.047,0.062,0.067
		c0.017,0.02,0.028,0.034,0.032,0.04l-0.021,0.264l-0.202,0.207c-0.025,0.015-0.051,0.031-0.076,0.047
		c-0.086,0.045-0.177,0.097-0.273,0.157c-0.094,0.059-0.204,0.137-0.33,0.234c-0.338,0.194-0.666,0.404-0.984,0.63
		c0.836,1.191,1.721,2.346,2.656,3.465c0.936,1.119,1.937,2.206,3.004,3.259c0.178,0.172,0.326,0.32,0.444,0.444
		c0.118,0.125,0.223,0.248,0.314,0.367c0.225,0.301,0.458,0.596,0.702,0.886l0.213,0.529l-0.126,0.477l-0.454,0.206
		c-0.066-0.021-0.136-0.039-0.208-0.056c-0.093-0.021-0.173-0.04-0.239-0.055c-0.068-0.015-0.104-0.026-0.107-0.032
		c-0.039-0.02-0.074-0.042-0.107-0.066c-0.257-0.157-0.518-0.312-0.781-0.464c-0.161-0.103-0.293-0.192-0.395-0.27
		c-0.102-0.078-0.193-0.153-0.273-0.227c-0.045-0.042-0.094-0.086-0.149-0.132l-0.158-0.126c-2.151-1.966-4.128-4.105-5.933-6.42
		c-0.068-0.082-0.132-0.161-0.19-0.239c-0.527,0.525-1.039,1.054-1.536,1.586c-0.071,0.071-0.143,0.147-0.215,0.228
		c-0.475,0.5-0.943,1.006-1.408,1.519c0.083,0.442,0.164,0.882,0.242,1.319l0.119,0.589c0.069,0.478,0.145,0.951,0.227,1.421
		c0.24,1.37,0.438,2.748,0.592,4.136l0.047,0.434c0.004,0.006,0.006,0.018,0.009,0.034c0.028,0.273,0.059,0.546,0.089,0.819
		c0.023,0.25,0.039,0.5,0.047,0.752c0.012,0.09,0.021,0.182,0.026,0.275c0.015,0.15,0.023,0.299,0.028,0.447
		c0.005,0.121-0.019,0.234-0.071,0.342c-0.051,0.108-0.141,0.18-0.269,0.216c-0.207,0.05-0.389,0-0.544-0.15
		c-0.075-0.076-0.128-0.169-0.156-0.28c-0.029-0.109-0.052-0.221-0.069-0.333c-0.008-0.04-0.016-0.079-0.021-0.119
		c-0.04-0.373-0.105-0.746-0.2-1.121c-0.027-0.115-0.056-0.23-0.083-0.345c-0.096-0.462-0.195-0.925-0.301-1.389l-0.017-0.069
		c-0.012-0.046-0.022-0.101-0.031-0.166c-0.01-0.065-0.019-0.126-0.028-0.182c-0.234-1.249-0.472-2.496-0.713-3.741
		c-0.035-0.181-0.07-0.366-0.109-0.554l-0.024-0.144c-0.028-0.159-0.054-0.319-0.076-0.482c-0.018-0.069-0.031-0.14-0.041-0.213
		c-0.679,0.778-1.338,1.572-1.98,2.381c-0.179,0.236-0.38,0.45-0.604,0.644c-0.08,0.068-0.176,0.124-0.286,0.166
		s-0.212,0.032-0.306-0.033c-0.12-0.093-0.182-0.209-0.186-0.348c-0.003-0.14,0.023-0.271,0.078-0.394
		c0.103-0.232,0.225-0.452,0.369-0.661c0.141-0.209,0.293-0.412,0.452-0.609c0.03-0.037,0.061-0.073,0.091-0.11
		c0.361-0.465,0.738-0.921,1.129-1.37c0.242-0.275,0.485-0.551,0.728-0.827c0.049-0.048,0.097-0.1,0.142-0.155l0.041-0.039
		c0.021-0.022,0.039-0.043,0.055-0.061c0.009-0.014,0.02-0.025,0.032-0.033c-0.483-2.843-0.954-5.689-1.414-8.537
		c-0.007-0.04-0.017-0.083-0.028-0.128c-0.158-1.014-0.311-2.027-0.459-3.039c-0.073-0.413-0.135-0.764-0.182-1.052
		c-0.049-0.288-0.09-0.569-0.125-0.843c-0.034-0.274-0.055-0.494-0.061-0.658c-0.013-0.23,0.017-0.452,0.087-0.664
		c0.071-0.212,0.216-0.396,0.437-0.552c0.006-0.004,0.016-0.01,0.029-0.018c0.123-0.069,0.217-0.112,0.277-0.127
		s0.109-0.022,0.146-0.02c0.021,0.006,0.04,0.007,0.057,0.005c0.258-0.012,0.498,0.052,0.721,0.189
		c0.225,0.139,0.43,0.313,0.619,0.521c0.188,0.208,0.354,0.419,0.494,0.631c0.048,0.076,0.096,0.152,0.143,0.228
		c0.049,0.076,0.105,0.168,0.174,0.276c0.012,0.019,0.025,0.042,0.041,0.067c0.024,0.038,0.057,0.092,0.098,0.164
		c0.041,0.072,0.111,0.182,0.213,0.331c0.052,0.083,0.107,0.167,0.166,0.254s0.133,0.195,0.224,0.324
		c1.355,2.375,2.791,4.687,4.307,6.936c0.155-0.106,0.309-0.211,0.464-0.317c0.057-0.036,0.113-0.072,0.171-0.107
		c0.106-0.057,0.21-0.118,0.312-0.182c0.029-0.01,0.049-0.02,0.06-0.031s0.02-0.019,0.025-0.022
		c0.007-0.004,0.015-0.009,0.024-0.015c0.01-0.006,0.025-0.012,0.049-0.017c0.022-0.006,0.055-0.017,0.096-0.034
		c0.043-0.018,0.105-0.039,0.188-0.064c0.035-0.014,0.071-0.027,0.106-0.041c0.065-0.023,0.133-0.045,0.203-0.067
		c0.07-0.022,0.159-0.045,0.269-0.069L92.682,120.371z M85.774,125.59c0.885-0.97,1.814-1.897,2.788-2.782
		c-1.323-1.83-2.543-3.699-3.659-5.606c-0.184-0.308-0.365-0.619-0.544-0.931c-0.052-0.082-0.101-0.167-0.146-0.253l-0.127-0.225
		c0.2,1.518,0.437,3.034,0.708,4.546c0.272,1.512,0.556,3.025,0.851,4.537C85.688,125.113,85.731,125.351,85.774,125.59z"/>
	<path class="st9" d="M99.399,122.485l-0.012,0.046c0.424,0.831,0.879,1.646,1.367,2.444c0.486,0.799,1.041,1.574,1.662,2.325
		c0.071,0.087,0.143,0.18,0.213,0.277c0.098,0.142,0.207,0.283,0.331,0.422c0.122,0.139,0.261,0.263,0.416,0.369l0.139,0.072
		c0.065,0.02,0.121,0.039,0.166,0.055c0.034-0.003,0.062-0.008,0.085-0.013c0.023-0.006,0.046-0.011,0.068-0.017l-0.016-0.004
		c-0.006,0.004-0.018,0.005-0.037,0.004c-0.018-0.002-0.034-0.005-0.045-0.011c-0.014-0.005-0.013-0.012,0-0.02
		c0.068-0.255,0.122-0.477,0.16-0.664c0.037-0.187,0.061-0.385,0.07-0.595c0.006-0.613-0.025-1.168-0.09-1.667
		s-0.139-1.251-0.223-2.259c-0.084-0.345-0.31-1.869-0.678-4.572l0.045-0.307l0.245-0.18l0.01-0.006l0.298,0.052l0.186,0.255
		c0.406,2.776,0.672,4.369,0.795,4.777c0.101,0.979,0.231,1.865,0.393,2.657c0.16,0.792,0.189,1.595,0.091,2.408
		c-0.021,0.164-0.075,0.356-0.161,0.579c-0.086,0.222-0.216,0.427-0.391,0.615c-0.172,0.188-0.397,0.316-0.674,0.383
		c-0.284,0.054-0.526,0.063-0.727,0.025c-0.2-0.039-0.398-0.102-0.596-0.19c-0.294-0.116-0.576-0.267-0.847-0.45
		c-0.27-0.185-0.526-0.386-0.769-0.604c-0.479-0.425-0.947-0.968-1.406-1.631c-0.46-0.662-0.889-1.327-1.291-1.994
		c-0.723-1.182-1.373-2.404-1.953-3.667l-0.023-0.038c-0.658-1.488-1.237-3-1.737-4.538c-0.499-1.538-0.853-3.055-1.058-4.552
		c-0.002-0.017-0.001-0.031,0.002-0.041l-0.016-0.11c-0.006-0.022-0.008-0.048-0.008-0.075c-0.032-0.475-0.034-0.946-0.005-1.415
		c0.028-0.469,0.146-0.905,0.353-1.308c0.141-0.185,0.273-0.328,0.4-0.43c0.126-0.101,0.279-0.177,0.459-0.228
		s0.381-0.048,0.602,0.008c0.271,0.094,0.512,0.241,0.719,0.438s0.391,0.409,0.551,0.636c0.072,0.087,0.125,0.151,0.16,0.191
		c0.034,0.041,0.069,0.089,0.105,0.146c0.146,0.208,0.287,0.425,0.42,0.651c0.711,1.233,1.266,2.538,1.664,3.914
		s0.646,2.789,0.742,4.24C99.624,120.081,99.571,121.281,99.399,122.485z M98.41,120.506l0.032,0.073
		c-0.003-0.033-0.006-0.067-0.01-0.1c0.004-0.037,0.006-0.07,0.006-0.097c-0.033-1.463-0.201-2.904-0.503-4.323
		c-0.302-1.419-0.776-2.787-1.425-4.104c-0.184-0.363-0.387-0.708-0.61-1.036c-0.107-0.171-0.229-0.333-0.368-0.485
		c-0.004-0.006-0.014-0.014-0.027-0.022c-0.031-0.034-0.074-0.078-0.13-0.131c-0.056-0.053-0.112-0.102-0.171-0.145
		c-0.058-0.043-0.105-0.062-0.146-0.054c-0.043,0.027-0.064,0.076-0.061,0.145c0.003,0.069,0.011,0.134,0.023,0.197
		c0.006,0.023,0.01,0.042,0.011,0.06c0.132,0.986,0.331,1.958,0.595,2.914c0.002,0.017,0.006,0.032,0.014,0.044
		c0.272,0.969,0.594,1.92,0.967,2.853c0.535,1.361,1.107,2.704,1.717,4.027C98.351,120.384,98.381,120.445,98.41,120.506z"/>
	<path class="st9" d="M108.194,116.747c0.048-0.065,0.1-0.129,0.158-0.192c0.224-0.291,0.424-0.712,0.6-1.264
		c0.175-0.551,0.438-0.831,0.787-0.838c0.107,0.216,0.129,0.492,0.063,0.83c-0.067,0.337-0.217,0.792-0.451,1.363
		c-0.395,0.768-0.959,1.44-1.693,2.015c0.929,0.354,1.756,0.879,2.479,1.575c0.723,0.696,1.328,1.482,1.816,2.36
		c0.475,0.869,0.865,1.774,1.174,2.718c0.308,0.942,0.572,1.9,0.794,2.875c0.069,0.292,0.14,0.583,0.216,0.872
		c0.18,0.823,0.381,1.641,0.602,2.452c0.222,0.811,0.486,1.61,0.795,2.398c0.004,0.006,0.01,0.016,0.018,0.028
		c0.084,0.204,0.156,0.415,0.218,0.633s0.063,0.437,0.007,0.658c-0.076,0.243-0.23,0.405-0.457,0.485
		c-0.228,0.082-0.453,0.072-0.674-0.028c-0.223-0.117-0.438-0.261-0.643-0.433c-0.032-0.024-0.064-0.048-0.098-0.071
		c-0.266-0.213-0.523-0.441-0.771-0.683c-0.596-0.581-1.145-1.205-1.648-1.869c-0.73-0.938-1.417-1.904-2.061-2.896
		c-0.645-0.992-1.271-1.996-1.881-3.01c-0.663-1.087-1.305-2.182-1.926-3.286s-1.189-2.237-1.705-3.398
		c-0.301-0.677-0.563-1.368-0.783-2.074s-0.373-1.425-0.453-2.161c-0.033-0.333-0.033-0.668-0.002-1.006
		c0.031-0.337,0.119-0.658,0.266-0.962c0.158-0.311,0.381-0.563,0.666-0.755c0.286-0.192,0.598-0.275,0.934-0.247
		c0.377,0.055,0.704,0.216,0.979,0.486c0.418,0.383,0.703,0.85,0.853,1.401c0.035,0.155,0.03,0.306-0.015,0.453
		c-0.045,0.148-0.137,0.229-0.277,0.247c-0.101-0.007-0.184-0.046-0.244-0.117c-0.063-0.072-0.12-0.149-0.172-0.231
		c-0.012-0.019-0.023-0.038-0.035-0.057c-0.172-0.273-0.396-0.49-0.674-0.652c-0.101-0.061-0.211-0.1-0.332-0.117
		c-0.121-0.017-0.207,0.04-0.258,0.169c-0.059,0.205-0.068,0.414-0.031,0.629c0.032,0.218,0.064,0.433,0.098,0.642
		c0.002,0.017,0.005,0.028,0.009,0.034c0.003,0.034,0.007,0.067,0.01,0.1c0.081,0.497,0.2,0.983,0.356,1.459
		c0.081,0.241,0.17,0.481,0.268,0.721c0.012,0.019,0.031,0.064,0.058,0.136c0.027,0.071,0.063,0.151,0.104,0.24
		c0.042,0.088,0.078,0.163,0.107,0.224c0.029,0.062,0.046,0.095,0.05,0.102C106.499,118.3,107.433,117.647,108.194,116.747z
		 M110.794,123.772c-0.26-0.57-0.562-1.119-0.905-1.646c-0.343-0.527-0.74-0.991-1.192-1.394c-0.449-0.402-0.969-0.697-1.556-0.886
		c-0.405-0.125-0.816-0.146-1.231-0.063c-0.017,0.001-0.025,0.005-0.027,0.01c-0.002,0.005-0.001,0.012,0,0.02
		c0,0.008,0.003,0.017,0.006,0.022c0.004,0.006,0.009,0.013,0.013,0.019c1.46,2.937,3.052,5.814,4.774,8.632l0.101,0.162
		c0.458,0.8,0.933,1.583,1.425,2.347c0.492,0.766,1.029,1.491,1.609,2.179c-0.078-0.269-0.147-0.501-0.205-0.699
		c-0.059-0.198-0.117-0.402-0.178-0.611c-0.152-0.567-0.303-1.14-0.453-1.717c-0.281-1.097-0.588-2.182-0.92-3.254
		C111.721,125.819,111.301,124.779,110.794,123.772z"/>
	<path class="st9" d="M121.547,106.841c0.138-0.007,0.243,0.051,0.315,0.174c0.072,0.122,0.116,0.253,0.133,0.393
		c0.219,1.728,0.359,2.757,0.425,3.087c0.097,0.549,0.188,1.099,0.272,1.651c0.086,0.552,0.142,1.103,0.168,1.652
		c0.021,0.429,0.008,0.867-0.038,1.315c-0.046,0.449-0.161,0.864-0.347,1.245c-0.155,0.301-0.361,0.561-0.618,0.779
		c-0.257,0.218-0.55,0.359-0.88,0.425c-0.299,0.045-0.594,0.028-0.888-0.053c-0.294-0.081-0.569-0.206-0.823-0.372
		c-0.453-0.3-0.845-0.659-1.174-1.081c-0.33-0.42-0.619-0.878-0.867-1.372c-0.248-0.495-0.477-0.994-0.686-1.499
		c0.096,1.071,0.141,2.141,0.135,3.209c-0.006,1.069-0.164,2.111-0.473,3.126c-0.087,0.258-0.189,0.507-0.307,0.749
		c-0.119,0.242-0.268,0.464-0.451,0.667c-0.418,0.474-0.94,0.704-1.567,0.691c-0.288-0.023-0.562-0.099-0.819-0.229
		s-0.49-0.294-0.693-0.494c-0.227-0.22-0.422-0.464-0.586-0.732c-0.163-0.269-0.31-0.548-0.438-0.838
		c-0.37-0.802-0.664-1.663-0.883-2.582c-0.218-0.919-0.335-1.851-0.353-2.794c-0.018-0.944,0.093-1.861,0.33-2.752
		c0.236-0.891,0.631-1.716,1.179-2.475c0.11-0.148,0.229-0.294,0.362-0.438c0.246-0.269,0.527-0.492,0.845-0.669
		c0.318-0.177,0.656-0.241,1.015-0.191c0.342,0.068,0.637,0.231,0.885,0.492c0.247,0.261,0.465,0.549,0.653,0.863
		c0.055-0.123,0.147-0.205,0.276-0.246c0.128-0.041,0.256-0.04,0.381,0.006c0.047,0.016,0.092,0.041,0.139,0.072
		c0.17,0.115,0.312,0.265,0.427,0.449c0.215,0.315,0.405,0.643,0.569,0.981c0.164,0.339,0.322,0.687,0.473,1.042
		c0.186,0.45,0.387,0.89,0.603,1.319c0.054,0.1,0.12,0.234,0.2,0.405c0.132,0.28,0.295,0.608,0.492,0.984
		c0.195,0.376,0.412,0.73,0.651,1.062c0.239,0.332,0.487,0.576,0.745,0.733c0.257,0.157,0.515,0.159,0.771,0.007
		c0.246-0.172,0.408-0.415,0.485-0.729s0.119-0.613,0.125-0.9c0.005-0.021,0.007-0.04,0.005-0.056
		c0.035-0.464,0.04-0.926,0.012-1.386c-0.027-0.46-0.066-0.921-0.117-1.384c-0.059-0.529-0.179-1.757-0.361-3.684
		c-0.006-0.137,0.013-0.271,0.056-0.398C121.346,106.937,121.428,106.862,121.547,106.841z M115.358,111.263
		c-0.004-0.006-0.004-0.033-0.002-0.079c0.003-0.045,0.002-0.102-0.001-0.171c-0.004-0.068-0.005-0.138-0.005-0.208
		c-0.021-0.005-0.039-0.008-0.055-0.013c-0.016-0.002-0.027-0.006-0.039-0.008c-0.01-0.002-0.018-0.002-0.024,0.002
		c-0.121-0.038-0.22-0.107-0.295-0.206c-0.075-0.099-0.138-0.203-0.188-0.313c-0.004-0.006-0.009-0.013-0.013-0.019
		c-0.061-0.112-0.12-0.225-0.175-0.341c-0.086-0.194-0.186-0.382-0.301-0.566c-0.066-0.118-0.15-0.229-0.254-0.331
		c-0.104-0.103-0.229-0.144-0.375-0.124c-0.174,0.048-0.321,0.144-0.441,0.29c-0.242,0.275-0.436,0.582-0.578,0.918
		c-0.414,0.975-0.627,1.997-0.638,3.064s0.109,2.105,0.361,3.114c0.136,0.569,0.311,1.122,0.522,1.66
		c0.007,0.022,0.014,0.049,0.023,0.078c0.1,0.256,0.209,0.516,0.33,0.781c0.121,0.264,0.264,0.504,0.426,0.721
		c0.053,0.072,0.119,0.131,0.195,0.175c0.076,0.046,0.159,0.054,0.247,0.025c0.007-0.004,0.013-0.008,0.02-0.013
		c0.085-0.035,0.155-0.092,0.211-0.172c0.185-0.24,0.325-0.504,0.423-0.794c0.096-0.29,0.176-0.583,0.237-0.878
		c0.138-0.598,0.236-1.203,0.294-1.814c0.078-1.046,0.106-2.094,0.086-3.142c-0.004-0.245-0.006-0.495-0.007-0.751
		c0.004-0.135,0.005-0.268,0.001-0.398C115.349,111.586,115.354,111.424,115.358,111.263z"/>
	<path class="st9" d="M131.815,100.18c0.138,0.02,0.229,0.094,0.273,0.22c0.043,0.127,0.037,0.28-0.02,0.457
		c-0.133,0.551-0.392,0.983-0.779,1.296c-0.282,0.31-0.443,0.609-0.482,0.899c-0.027,0.14-0.051,0.279-0.071,0.416
		c-0.001,0.027-0.009,0.063-0.025,0.108c-0.015,0.062-0.028,0.124-0.042,0.186c-0.015,0.062-0.014,0.105,0.003,0.131
		c1.026,1.963,1.976,3.964,2.847,6.002c0.871,2.039,1.633,4.121,2.286,6.248c0.235,0.745,0.417,1.51,0.544,2.297
		c0.127,0.787,0.148,1.552,0.068,2.297c-0.082,0.744-0.324,1.429-0.729,2.053c-0.344,0.507-0.801,0.879-1.368,1.116
		c-0.567,0.236-1.165,0.315-1.794,0.236c-0.628-0.079-1.207-0.337-1.736-0.773c-0.5-0.43-0.922-0.934-1.266-1.513
		c-0.346-0.579-0.619-1.196-0.822-1.851c-0.203-0.655-0.352-1.319-0.447-1.992c-0.131-1.014-0.172-2.026-0.122-3.039
		s0.157-2.025,0.317-3.036c0.162-1.011,0.342-2.021,0.541-3.029c0.084-0.442,0.168-0.887,0.249-1.335l0.071-0.31
		c0.072-0.293,0.141-0.587,0.202-0.883c-0.144-0.272-0.284-0.546-0.423-0.822c-0.391-0.807-0.812-1.579-1.264-2.315
		c-0.454-0.736-1.006-1.37-1.655-1.899c-0.099-0.088-0.21-0.168-0.331-0.243c-0.121-0.075-0.246-0.128-0.374-0.164
		c-0.113-0.026-0.216-0.013-0.308,0.04c-0.09,0.053-0.175,0.122-0.254,0.207c-0.265,0.254-0.477,0.55-0.636,0.889
		c-0.093,0.218-0.181,0.487-0.263,0.808c-0.082,0.32-0.154,0.642-0.217,0.964c-0.063,0.322-0.059,0.942,0.018,1.858
		c0.074,0.916,0.111,1.379,0.108,1.39c-0.046,0.223-0.164,0.376-0.354,0.46c-0.189,0.084-0.385,0.074-0.582-0.032
		c-0.158-0.095-0.269-0.23-0.332-0.401c-0.064-0.172-0.153-0.704-0.27-1.594c-0.117-0.89-0.172-1.422-0.164-1.594
		c-0.002-0.017,0-0.035,0.004-0.056c0.008-0.65,0.094-1.297,0.254-1.942c0.162-0.645,0.439-1.231,0.832-1.761
		c0.375-0.473,0.805-0.791,1.291-0.955c0.484-0.163,0.988-0.186,1.507-0.069s1.011,0.347,1.474,0.693
		c0.629,0.48,1.186,1.038,1.671,1.67l0.012,0.019c0.3,0.422,0.579,0.861,0.838,1.317l0.013,0.019
		c0.061-0.523,0.291-0.924,0.691-1.202c0.303-0.278,0.484-0.536,0.543-0.772c0.06-0.235,0.112-0.41,0.156-0.522
		c0.046-0.112,0.129-0.175,0.252-0.191C131.774,100.175,131.796,100.174,131.815,100.18z M134.998,116.462
		c-0.556-1.604-1.175-3.184-1.858-4.74c-0.684-1.555-1.41-3.089-2.182-4.603c-0.003,0.01-0.005,0.021-0.008,0.031
		c0.004,0.006,0.005,0.015,0.002,0.025c-0.078,0.438-0.16,0.878-0.245,1.32c-0.192,0.978-0.366,1.958-0.521,2.944
		c-0.156,0.985-0.256,1.978-0.301,2.978c-0.035,0.79-0.003,1.583,0.094,2.38s0.281,1.564,0.555,2.303
		c0.273,0.739,0.655,1.422,1.146,2.051c0.23,0.298,0.506,0.552,0.822,0.764c0.319,0.21,0.659,0.34,1.02,0.388
		c0.361,0.047,0.722-0.024,1.08-0.213c0.369-0.213,0.632-0.53,0.789-0.951c0.155-0.421,0.229-0.898,0.222-1.432
		c-0.007-0.534-0.069-1.083-0.185-1.647C135.314,117.496,135.171,116.964,134.998,116.462z"/>
	<path class="st9" d="M140.069,95.351l0.202,0.152l0.022,0.25l-0.162,0.249c-0.034,0.029-0.068,0.061-0.106,0.093
		c-0.037,0.032-0.078,0.076-0.124,0.131c-0.025,0.015-0.049,0.034-0.07,0.057c-0.115,0.099-0.23,0.211-0.346,0.336
		c-0.115,0.126-0.259,0.313-0.431,0.561c0.326,0.901,0.571,1.654,0.735,2.263c0.166,0.608,0.266,1.175,0.304,1.699
		c0.034,0.562,0.027,1.127-0.019,1.695c-0.047,0.568-0.168,1.097-0.363,1.587c-0.197,0.49-0.5,0.902-0.908,1.238
		c-0.429,0.331-0.914,0.445-1.455,0.342c-0.521-0.141-0.973-0.416-1.351-0.823c-0.38-0.407-0.698-0.844-0.955-1.311
		c-0.237-0.408-0.453-0.829-0.646-1.264c-0.36-0.181-0.655-0.35-0.886-0.505c-0.23-0.157-0.428-0.337-0.593-0.543
		c-0.521-0.663-0.896-1.418-1.122-2.266c-0.227-0.847-0.273-1.681-0.143-2.501c0.131-0.821,0.475-1.511,1.033-2.073
		c0.336-0.325,0.748-0.552,1.236-0.681c0.489-0.13,0.989-0.139,1.501-0.026c0.634,0.15,1.207,0.43,1.718,0.838
		c0.512,0.409,0.96,0.877,1.344,1.405c-0.006,0.003-0.012,0.008-0.018,0.011c-0.007,0.004-0.008,0.005-0.005,0.003
		c0.003-0.002,0.006-0.003,0.009-0.005c0.004-0.002,0.01-0.006,0.02-0.012s0.021-0.015,0.035-0.028
		c0.013-0.013,0.029-0.03,0.047-0.05c0.02-0.021,0.041-0.042,0.064-0.067c0.025-0.024,0.055-0.051,0.088-0.082
		c0.207-0.192,0.434-0.36,0.678-0.504l0.369-0.152L140.069,95.351z M137.555,97.643l0.004-0.016
		c-0.281-0.433-0.619-0.833-1.017-1.198c-0.397-0.366-0.813-0.616-1.245-0.75c-0.434-0.134-0.844-0.073-1.229,0.187
		c-0.258,0.196-0.432,0.451-0.521,0.764c-0.091,0.313-0.132,0.639-0.123,0.978c0.01,0.339,0.031,0.635,0.065,0.887
		c0.028,0.229,0.07,0.451,0.124,0.664c0.039-0.051,0.078-0.093,0.115-0.125c0.037-0.032,0.084-0.058,0.144-0.077
		c0.04-0.008,0.076-0.008,0.11-0.003c0.034,0.005,0.074,0.018,0.118,0.039s0.088,0.052,0.132,0.096
		c0.107,0.101,0.197,0.192,0.271,0.274c0.074,0.083,0.141,0.17,0.2,0.266c0.166,0.223,0.37,0.669,0.614,1.339
		c0.268-0.248,0.496-0.477,0.682-0.687c0.188-0.209,0.361-0.445,0.525-0.707c0.216-0.374,0.422-0.755,0.62-1.145
		C137.279,98.16,137.415,97.898,137.555,97.643z M138.548,100.135c-0.078-0.42-0.191-0.829-0.346-1.228
		c-0.024,0.06-0.05,0.124-0.076,0.194c-0.166,0.413-0.348,0.821-0.547,1.223c-0.197,0.403-0.426,0.776-0.684,1.119
		s-0.572,0.626-0.945,0.85c-0.008,0.014,0.014,0.071,0.067,0.17s0.117,0.215,0.193,0.35c0.075,0.134,0.144,0.255,0.206,0.361
		c0.063,0.107,0.102,0.173,0.117,0.198c0.008,0.013,0.016,0.025,0.023,0.038c0.084,0.133,0.188,0.287,0.314,0.459
		c0.127,0.173,0.266,0.322,0.42,0.447c0.152,0.125,0.316,0.185,0.492,0.182c0.199-0.019,0.354-0.121,0.464-0.305
		c0.11-0.184,0.191-0.394,0.242-0.629c0.052-0.235,0.087-0.443,0.106-0.623c0.004-0.038,0.008-0.071,0.016-0.103
		c0.09-0.658,0.106-1.317,0.047-1.977c-0.021-0.173-0.039-0.314-0.054-0.423C138.589,100.328,138.57,100.227,138.548,100.135z"/>
	<path class="st9" d="M147.673,90.546c0.098,0.028,0.268,0.427,0.513,1.197c0.244,0.771,0.378,1.21,0.401,1.319
		c0.214,0.706,0.403,1.415,0.572,2.126c0.168,0.713,0.266,1.436,0.292,2.169c0.009,0.295-0.011,0.593-0.058,0.891
		c-0.047,0.299-0.149,0.577-0.306,0.834c-0.241,0.363-0.546,0.581-0.916,0.653s-0.742,0.006-1.119-0.2
		c-0.392-0.231-0.729-0.523-1.013-0.876c-0.283-0.353-0.531-0.727-0.744-1.124c-0.654-1.198-1.115-2.464-1.385-3.797
		c-0.15,0.34-0.325,0.664-0.525,0.972c-0.201,0.307-0.46,0.546-0.776,0.718c-0.444,0.208-0.906,0.245-1.386,0.113
		c-0.531-0.17-0.966-0.479-1.303-0.926c-0.338-0.447-0.557-0.948-0.658-1.503c-0.094-0.516-0.07-1.025,0.07-1.528
		c0.139-0.503,0.414-0.914,0.824-1.233c0.276-0.208,0.588-0.302,0.937-0.282c0.263,0.039,0.493,0.155,0.689,0.35
		s0.352,0.416,0.464,0.664c0.23,0.509,0.33,1.043,0.3,1.601c-0.03,0.559-0.187,1.08-0.465,1.564
		c0.206-0.164,0.374-0.358,0.505-0.582c0.129-0.222,0.25-0.457,0.361-0.703c0.133-0.322,0.298-0.624,0.492-0.905
		c0.158-0.241,0.367-0.407,0.627-0.5c0.333-0.076,0.641-0.017,0.922,0.179c0.26,0.19,0.473,0.424,0.637,0.7
		c0.289,0.447,0.529,0.915,0.721,1.404c0.191,0.489,0.371,0.987,0.538,1.492c0.16,0.51,0.338,1.012,0.534,1.508
		c0.195,0.495,0.438,0.966,0.727,1.414c0.02-0.04,0.036-0.076,0.049-0.111c0.079-0.27,0.121-0.545,0.126-0.827
		c0.005-0.282-0.011-0.562-0.044-0.841c-0.112-0.981-0.249-1.956-0.413-2.922c-0.016-0.052-0.025-0.103-0.03-0.153
		c-0.414-1.535-0.6-2.389-0.561-2.565c0.025-0.086,0.074-0.159,0.148-0.218C147.494,90.559,147.578,90.535,147.673,90.546z
		 M141.338,93.655c0.083-0.122,0.134-0.26,0.152-0.414c0.009-0.014,0.013-0.03,0.012-0.046c0.044-0.169,0.069-0.34,0.075-0.511
		c0.027-0.38-0.035-0.742-0.189-1.087c-0.023-0.065-0.063-0.142-0.119-0.23c-0.055-0.089-0.118-0.151-0.188-0.186
		c-0.07-0.036-0.144,0.001-0.218,0.109c-0.082,0.123-0.139,0.264-0.17,0.425c-0.057,0.318-0.053,0.631,0.013,0.94
		c0.065,0.307,0.168,0.603,0.31,0.885c0.033,0.067,0.079,0.119,0.135,0.154C141.208,93.728,141.27,93.715,141.338,93.655z"/>
	<path class="st9" d="M155.85,85.05l0.265,0.126l0.19,0.305c0.012,0.046,0.023,0.094,0.037,0.143s0.031,0.106,0.055,0.171
		c0.019,0.227,0.068,0.92,0.149,2.08c0.03,0.696,0.03,1.397-0.001,2.102c-0.031,0.704-0.131,1.385-0.297,2.042
		c-0.168,0.657-0.439,1.263-0.816,1.817c-0.333,0.456-0.756,0.796-1.269,1.021c-0.515,0.225-1.052,0.283-1.614,0.176
		c-0.543-0.119-1.037-0.339-1.485-0.66c-0.448-0.319-0.851-0.688-1.21-1.104c-0.357-0.416-0.662-0.833-0.914-1.25
		c-0.07-0.124-0.127-0.23-0.173-0.315c-0.046-0.086-0.089-0.176-0.134-0.268c-0.044-0.092-0.081-0.167-0.11-0.229
		c-0.288-0.712-0.485-1.45-0.593-2.213c-0.106-0.763-0.1-1.537,0.02-2.318c0.055-0.379,0.143-0.759,0.266-1.141
		s0.311-0.721,0.563-1.015c0.253-0.295,0.607-0.502,1.063-0.62c0.382-0.081,0.737-0.027,1.067,0.159
		c0.329,0.187,0.604,0.472,0.826,0.854s0.355,0.829,0.401,1.339c0.067,0.7-0.027,1.376-0.286,2.028
		c-0.258,0.653-0.651,1.219-1.18,1.701c0.096,0.196,0.183,0.363,0.26,0.5c0.076,0.138,0.15,0.268,0.22,0.393
		c0.251,0.47,0.54,0.909,0.87,1.316c0.331,0.407,0.703,0.688,1.119,0.843l0.195,0.037c0.077-0.004,0.121-0.005,0.131-0.003
		c0.006-0.004,0.012-0.007,0.015-0.009s0.011-0.007,0.024-0.015c0.136-0.077,0.25-0.149,0.342-0.215
		c0.091-0.065,0.174-0.14,0.246-0.22c0.342-0.427,0.59-0.917,0.74-1.472c0.152-0.554,0.273-1.121,0.361-1.697
		c0.013-0.079,0.022-0.155,0.028-0.23c0.121-0.667,0.161-1.802,0.12-3.402c0.004-0.01,0.004-0.023,0.002-0.041l0.01-0.006
		c0.013-0.035,0.024-0.07,0.033-0.106c0.008-0.037,0.019-0.085,0.033-0.147l0.171-0.319c0.05-0.032,0.091-0.055,0.122-0.07
		c0.029-0.015,0.059-0.03,0.083-0.045C155.823,85.054,155.84,85.048,155.85,85.05z M149.954,88.414
		c0.027,0.071,0.055,0.147,0.082,0.227c0.028,0.08,0.068,0.174,0.118,0.284c-0.004-0.006,0-0.015,0.011-0.026
		s0.025-0.027,0.044-0.047s0.034-0.039,0.05-0.058c0.014-0.018,0.025-0.029,0.032-0.033c0.047-0.065,0.095-0.131,0.142-0.196
		c0.085-0.132,0.158-0.271,0.219-0.415c0.141-0.283,0.232-0.579,0.276-0.889c0.054-0.352,0.044-0.699-0.03-1.042
		c-0.036-0.172-0.091-0.336-0.164-0.494c-0.055-0.159-0.143-0.299-0.262-0.419c-0.04-0.036-0.086-0.06-0.139-0.072
		c-0.115-0.016-0.218,0.018-0.309,0.1c-0.074,0.064-0.131,0.135-0.17,0.213c-0.146,0.259-0.23,0.542-0.251,0.846
		c-0.024,0.272-0.013,0.544,0.036,0.819c0.047,0.275,0.111,0.546,0.192,0.814C149.878,88.157,149.918,88.287,149.954,88.414z"/>
	<path class="st9" d="M163.243,80.033c0.113-0.142,0.221-0.166,0.32-0.069c0.102,0.096,0.164,0.216,0.191,0.357
		c0.02,0.129,0.027,0.257,0.021,0.384c-0.004,0.126-0.439,0.811-1.305,2.051c-0.595,1.026-1.012,1.875-1.253,2.548
		c-0.071,0.211-0.144,0.421-0.218,0.626c0.226,0.132,0.453,0.264,0.685,0.393c0.421,0.222,0.828,0.462,1.22,0.721
		c0.313,0.201,0.598,0.433,0.858,0.694s0.477,0.554,0.646,0.881c0.174,0.333,0.271,0.687,0.295,1.061
		c0.021,0.375-0.047,0.731-0.205,1.069c-0.156,0.301-0.372,0.549-0.647,0.744c-0.275,0.195-0.581,0.327-0.917,0.396
		c-0.479,0.097-0.963,0.08-1.451-0.052c-0.488-0.131-0.909-0.364-1.262-0.7c-0.353-0.354-0.614-0.764-0.784-1.232
		c-0.13-0.377-0.208-0.766-0.233-1.165c-0.025-0.4-0.012-0.797,0.041-1.192c0.006-0.004,0.008-0.01,0.004-0.016
		c0.018-0.099,0.018-0.197,0.002-0.292c-0.037-0.101-0.092-0.195-0.164-0.282c-0.004-0.006-0.008-0.008-0.016-0.004
		c-0.445-0.569-0.814-1.181-1.109-1.835c-0.246,0.835-0.404,1.999-0.477,3.492c-0.026,0.353-0.056,0.563-0.088,0.632
		c-0.031,0.069-0.09,0.134-0.174,0.196c-0.277,0.067-0.383-0.207-0.317-0.822c0.022-0.739,0.008-1.492-0.044-2.259
		c-0.053-0.767-0.117-2.081-0.196-3.939c0.02-0.561,0.04-1.121,0.06-1.681c0.002-0.222,0.035-0.439,0.098-0.65
		c0.061-0.212,0.186-0.367,0.37-0.465c0.188-0.083,0.376-0.081,0.565,0.003c0.19,0.084,0.338,0.217,0.442,0.398
		c0.085,0.15,0.146,0.311,0.183,0.482c0.037,0.171,0.065,0.343,0.086,0.516c0.004,0.05,0.01,0.1,0.014,0.15
		c0.02,0.102,0.037,0.207,0.051,0.313c0.221,1.24,0.699,2.376,1.434,3.409c0.162-0.349,0.311-0.704,0.447-1.063
		c0.166-0.484,0.972-1.616,2.418-3.397c0.055-0.096,0.108-0.183,0.161-0.26C163.048,80.098,163.13,80.05,163.243,80.033z
		 M162.546,89.959c-0.044-0.097-0.109-0.184-0.197-0.261c-0.088-0.078-0.177-0.146-0.267-0.205c-0.544-0.374-1.085-0.751-1.622-1.13
		c-0.043,0.425,0.011,0.836,0.164,1.235c0.084,0.221,0.221,0.401,0.404,0.542c0.402,0.287,0.839,0.358,1.313,0.211
		c0.082-0.024,0.15-0.072,0.204-0.141C162.585,90.134,162.585,90.05,162.546,89.959z"/>
</g>
<g>
</g>
<g>
</g>
<g>
</g>
<g>
</g>
<g>
</g>
<g>
</g>
</svg>
