<?xml version="1.0" encoding="utf-8"?>
<!-- Generator: Adobe Illustrator 23.0.5, SVG Export Plug-In . SVG Version: 6.00 Build 0)  -->
<svg version="1.1" id="Capa_1" xmlns="http://www.w3.org/2000/svg" xmlns:xlink="http://www.w3.org/1999/xlink" x="0px" y="0px"
	 viewBox="0 0 199.765 201.362" style="enable-background:new 0 0 199.765 201.362;" xml:space="preserve">
<style type="text/css">
	.st0{stroke:#E0007E;stroke-width:2;}
	.st1{stroke:#E72067;stroke-width:2;}
	.st2{fill:#FFFFFF;}
	.st3{fill:#E39FC6;}
	.st4{fill:none;stroke:#A41640;stroke-width:2;}
	.st5{fill:none;}
	.st6{fill:#432918;stroke:#000000;}
	.st7{fill:#B17F4A;stroke:#000000;}
	.st8{display:none;fill:#5D4116;stroke:#000000;}
	.st9{stroke:#000000;stroke-width:0.5;}
</style>
<path class="st0" d="M32.31,55.848c-11.068-12.008-8.291-30.225,2.528-37.581c10.704-7.279,28.434-3.352,35.698,11.066"/>
<path class="st1" d="M106.665,27.244c3.116-16.031,19.437-24.586,31.773-20.23c12.205,4.31,19.547,20.92,12.236,35.315"/>
<path class="st1" d="M41.391,132.638c-13.876,8.611-31.245,2.455-36.434-9.554c-5.135-11.882,2.058-28.557,17.586-32.979"/>
<path class="st1" d="M166.661,75.431c15.8-4.131,30.577,6.876,31.991,19.882c1.399,12.868-10.395,26.677-26.536,26.318"/>
<path class="st1" d="M87.933,170.911c-0.743,16.314-15.64,27.16-28.479,24.651c-12.704-2.482-22.391-17.842-17.259-33.15"/>
<path class="st1" d="M155.247,148.956c9.841,13.033,5.296,30.89-6.19,37.154c-11.364,6.197-28.625,0.556-34.445-14.503"/>
<path class="st1" d="M56.744,58.1C45.954,31.693,62.508,5.334,82.615,1.127c19.581-4.097,45.491,12.195,48.509,39.522"/>
<path class="st1" d="M33.1,113.512c-27.537-7.447-38.444-36.6-29.586-55.136c8.625-18.05,37.297-28.759,60.85-14.576"/>
<path class="st1" d="M87.783,160.624c-16.667,23.151-47.794,23.092-62.023,8.275c-13.856-14.429-13.783-45.036,7.786-62.085"/>
<path class="st1" d="M119.426,39.351c18.802-21.453,49.781-18.423,62.529-2.314c12.415,15.686,9.419,46.146-13.679,61.058"/>
<path class="st1" d="M164.38,92.884c27.188,8.634,36.821,38.232,27.169,56.366c-9.4,17.659-38.508,27.116-61.424,11.925"/>
<path class="st1" d="M139.104,152.353c3.684,28.287-19.057,49.541-39.572,48.47c-19.978-1.043-40.865-23.415-36.799-50.606"/>
<g>
	<circle class="st2" cx="100.86" cy="98.729" r="69.429"/>
	<circle class="st3" cx="100.86" cy="98.729" r="69.429"/>
	<circle class="st4" cx="100.86" cy="98.729" r="69.429"/>
</g>
<g>
	<rect x="80.783" y="121.628" class="st5" width="58.5" height="1.929"/>
</g>
<g>
	<g>
		<path class="st6" d="M118.117,57.885c0.98,0.668,1.808,1.533,2.43,2.539c4.99,8.161,5.527,24.976-19.988,40.344
			s-40.295,7.131-45.285-1.03c-0.612-1.012-1.003-2.141-1.148-3.312L118.117,57.885z"/>
		<path class="st7" d="M113.427,50.449c1.084,0.687,1.996,1.609,2.67,2.697c4.99,8.161,5.527,24.976-19.988,40.344
			s-40.295,7.131-45.285-1.03c-0.662-1.095-1.064-2.324-1.178-3.595L113.427,50.449z"/>
		<path class="st6" d="M110.399,44.14c-0.108-0.125-0.221-0.232-0.342-0.35c-4.199-3.999-13.188-4.145-23.632-0.856
			C74.794,46.762,64.189,53.15,55.397,61.622c-7.762,7.677-11.781,15.657-10.146,21.201c0.05,0.16,0.093,0.309,0.155,0.463
			c0.175,0.495,0.402,0.971,0.676,1.419c0.968,1.558,2.17,2.961,3.564,4.159c6.906,5.974,20.537,9.122,41.494-3.501
			s24.438-26.076,22.287-34.915c-0.428-1.78-1.126-3.486-2.072-5.058C111.081,44.942,110.76,44.523,110.399,44.14z"/>
		<path class="st8" d="M110.674,44.91c-0.083-0.258-0.178-0.519-0.277-0.767c-0.103-0.125-0.216-0.241-0.34-0.347
			c-0.329-0.312-0.68-0.6-1.05-0.864l-0.012-0.003c-4.281-2.959-11.991-3.026-20.921-0.49c-0.543,0.157-1.086,0.315-1.647,0.494
			c-0.546,0.17-1.111,0.361-1.678,0.565c-4.798,1.67-9.417,3.809-13.789,6.385c-0.368,0.2-0.741,0.425-1.115,0.65
			s-0.747,0.45-1.096,0.681c-4.321,2.663-8.369,5.74-12.085,9.188c-0.432,0.409-0.864,0.817-1.267,1.219
			c-0.419,0.412-0.811,0.817-1.202,1.222c-6.39,6.692-9.89,13.51-9.222,18.645l-0.003,0.012c0.065,0.447,0.16,0.889,0.287,1.323
			c0.037,0.157,0.089,0.311,0.153,0.459c0.176,0.201,0.365,0.406,0.557,0.598c3.213,3.199,9.178,5.516,18.389,3.84
			c1.012-0.175,2.064-0.405,3.169-0.689c6.423-1.817,12.564-4.499,18.252-7.97c0.361-0.228,0.732-0.441,1.106-0.666
			s0.735-0.453,1.106-0.666c5.736-3.404,10.974-7.576,15.565-12.398c0.748-0.832,1.44-1.652,2.063-2.462
			C111.366,55.536,112.05,49.216,110.674,44.91z M85.299,63.111l-0.003,0.012c-0.535,0.396-1.095,0.787-1.684,1.184
			c-0.865,0.606-1.78,1.2-2.736,1.797c-0.349,0.231-0.722,0.456-1.096,0.681c-0.374,0.225-0.747,0.45-1.115,0.65
			c-0.962,0.569-1.925,1.085-2.853,1.57c-0.626,0.335-1.246,0.645-1.851,0.945l-0.012-0.003c-0.617,0.297-1.216,0.573-1.795,0.827
			c-2.735,1.349-5.684,2.224-8.718,2.588c-0.663,0.061-1.331-0.053-1.937-0.329c-0.213-0.112-0.393-0.279-0.519-0.483
			c-0.112-0.179-0.172-0.385-0.173-0.596c-0.137-1.774,2.559-4.978,6.904-8.412c0.51-0.403,1.033-0.802,1.583-1.208l0.012,0.003
			c0.535-0.396,1.083-0.79,1.658-1.19c0.865-0.606,1.783-1.212,2.752-1.806c0.349-0.231,0.722-0.456,1.096-0.681
			c0.374-0.225,0.747-0.45,1.115-0.65c0.975-0.566,1.928-1.098,2.869-1.58c0.623-0.322,1.243-0.632,1.845-0.92l0.003-0.012
			c0.617-0.297,1.215-0.573,1.811-0.836c5.075-2.24,9.183-3.134,10.706-2.194c0.186,0.1,0.343,0.248,0.453,0.427
			c0.124,0.205,0.191,0.44,0.192,0.68c-0.033,0.661-0.24,1.302-0.601,1.858c-1.726,2.504-3.869,4.695-6.338,6.48
			C86.372,62.305,85.85,62.704,85.299,63.111z"/>
	</g>
</g>
<g>
	<path class="st9" d="M70.794,128.461c1.121,1.292,2.068,2.707,2.841,4.245c0.774,1.537,1.38,3.132,1.815,4.784
		c0.438,1.616,0.711,3.268,0.823,4.955s0.075,3.385-0.111,5.091c-0.085,0.895-0.235,1.79-0.451,2.687
		c-0.216,0.896-0.542,1.737-0.978,2.523s-1.014,1.467-1.734,2.046c-0.805,0.609-1.711,0.943-2.717,1.002
		c-1.005,0.06-1.936-0.178-2.79-0.714c-0.604-0.394-1.085-0.902-1.44-1.526c-0.356-0.624-0.545-1.303-0.568-2.038
		c-0.021-0.586,0.055-1.163,0.227-1.733c-1.527-2.235-3.021-4.502-4.485-6.8c-1.464-2.298-2.925-4.638-4.384-7.021l-0.373-0.596
		c-0.275-0.495-0.551-0.991-0.827-1.486l-0.104-0.194c-0.012,0.054-0.027,0.104-0.045,0.149c-0.049,0.123-0.1,0.247-0.148,0.37
		c-0.168,0.485-0.311,0.984-0.428,1.495c-0.028,0.122-0.053,0.258-0.072,0.409c-0.022,0.187-0.055,0.374-0.098,0.562
		c-0.044,0.189-0.124,0.354-0.242,0.498c-0.159,0.169-0.339,0.244-0.541,0.227c-0.201-0.018-0.374-0.114-0.518-0.289
		c-0.119-0.19-0.16-0.403-0.125-0.64c0.037-0.236,0.1-0.468,0.187-0.695c0.056-0.15,0.098-0.286,0.126-0.407
		c0.283-1.238,0.65-2.424,1.098-3.558c0.447-1.133,1.033-2.227,1.757-3.279c0.681-0.991,1.487-1.866,2.419-2.622
		c1.003-0.79,2.074-1.289,3.212-1.495c1.139-0.207,2.305-0.102,3.499,0.314c1.011,0.38,1.952,0.895,2.824,1.541
		C69.311,126.91,70.096,127.642,70.794,128.461z M70.253,132.396c-0.514-0.912-1.098-1.779-1.752-2.602
		c-0.654-0.823-1.388-1.525-2.2-2.104c-0.813-0.58-1.716-0.962-2.707-1.147c-0.736-0.126-1.45-0.085-2.144,0.125
		c-0.692,0.209-1.326,0.546-1.9,1.009c-1.025,0.827-1.874,1.809-2.545,2.944c-0.103,0.167-0.202,0.34-0.3,0.516
		c-0.015,0.032-0.027,0.057-0.038,0.076c0.121,0.177,0.244,0.354,0.367,0.531c0.051,0.083,0.107,0.163,0.168,0.24l0.147,0.236
		c0.169,0.251,0.345,0.504,0.527,0.758c0.067,0.108,0.135,0.215,0.202,0.323l0.502,0.774c0.313,0.519,0.627,1.036,0.939,1.555
		c1.215,2.028,2.432,4.049,3.652,6.061c1.221,2.012,2.465,4.01,3.73,5.994c0.201-0.195,0.414-0.38,0.638-0.555l0.37-0.127
		l0.342,0.131l0.124,0.337l-0.136,0.362c-0.164,0.217-0.306,0.451-0.426,0.7c-0.053,0.101-0.104,0.203-0.156,0.304
		c0.568,0.889,1.15,1.769,1.743,2.642l0.181,0.371c0.033,0.072,0.07,0.149,0.111,0.233c0.041,0.084,0.094,0.187,0.158,0.307
		l0.105,0.694c-0.055,0.115-0.102,0.205-0.141,0.271c-0.041,0.065-0.075,0.124-0.105,0.178c-0.029,0.053-0.046,0.087-0.049,0.1
		l-0.188,0.031c0.584,0.014,1.148-0.155,1.694-0.509c0.545-0.353,0.976-0.894,1.292-1.622c0.133-0.303,0.238-0.611,0.318-0.926
		c0.259-1.038,0.41-2.095,0.451-3.169c0.113-1.915,0.063-3.843-0.15-5.783c-0.186-1.601-0.504-3.19-0.957-4.768
		S71.047,133.811,70.253,132.396z M67.93,153.076c0.172,0.145,0.357,0.266,0.555,0.361l-0.064-0.046
		c-0.102-0.108-0.208-0.218-0.316-0.328c-0.109-0.11-0.236-0.242-0.378-0.395c-0.106-0.152-0.21-0.3-0.312-0.444
		c-0.063-0.099-0.133-0.2-0.208-0.302C67.339,152.369,67.579,152.754,67.93,153.076z"/>
	<path class="st9" d="M92.823,129.591c0.201-0.01,0.351,0.068,0.45,0.237c0.1,0.168,0.361,1.352,0.784,3.553
		c0.255,0.958,0.45,1.928,0.587,2.908c0.136,0.981,0.117,1.958-0.056,2.931c-0.072,0.345-0.186,0.68-0.338,1.006
		s-0.365,0.601-0.635,0.821c-0.271,0.222-0.615,0.348-1.033,0.38c-0.604,0.01-1.143-0.177-1.613-0.562
		c-0.387-0.323-0.708-0.692-0.963-1.109c-0.256-0.416-0.487-0.846-0.697-1.292c-0.128-0.277-0.264-0.549-0.408-0.816
		c0.082,0.168,0.137,0.374,0.162,0.617c0.025,0.243,0.041,0.489,0.048,0.739c0.015,0.187,0.022,0.349,0.027,0.484
		c0.083,0.721,0.11,1.435,0.081,2.145c-0.015,0.436-0.075,0.909-0.182,1.419s-0.286,0.974-0.537,1.392
		c-0.252,0.417-0.613,0.698-1.087,0.845c-0.384,0.103-0.767,0.091-1.146-0.035c-0.377-0.125-0.709-0.324-0.994-0.595
		c-0.468-0.433-0.885-0.942-1.25-1.525c-0.365-0.583-0.695-1.192-0.988-1.826c-0.295-0.634-0.562-1.245-0.803-1.832
		c-1-2.404-1.648-4.901-1.947-7.493c-0.041-0.285-0.053-0.571-0.037-0.858c0.017-0.287,0.105-0.55,0.268-0.789
		c0.061-0.085,0.139-0.157,0.235-0.217c0.095-0.059,0.193-0.081,0.296-0.064c0.035,0.001,0.068,0.009,0.102,0.023
		c0.313,0.15,0.563,0.367,0.754,0.651c0.189,0.284,0.322,0.598,0.4,0.942c0.402,1.856,0.982,3.757,1.74,5.703
		c0.759,1.945,1.691,3.682,2.801,5.212c0.123,0.142,0.264,0.191,0.422,0.15s0.256-0.154,0.29-0.337
		c0.146-0.944,0.212-2.002,0.197-3.174s-0.089-2.235-0.226-3.187c-0.202-1.279-0.449-2.547-0.742-3.805
		c-0.085-0.338-0.17-0.677-0.256-1.015c-0.086-0.303-0.164-0.612-0.233-0.925c-0.021-0.068-0.04-0.136-0.06-0.205
		c-0.074-0.265-0.128-0.54-0.162-0.823c-0.034-0.284-0.004-0.554,0.09-0.809c0.088-0.228,0.238-0.392,0.453-0.491
		c0.322-0.11,0.604-0.087,0.846,0.066c0.24,0.155,0.442,0.375,0.604,0.66c0.161,0.285,0.287,0.555,0.377,0.809
		c0.199,0.556,0.375,1.113,0.529,1.673c0.15,0.551,0.322,1.101,0.516,1.648c0.393,1.068,0.865,2.097,1.416,3.088
		c0.279,0.482,0.575,0.954,0.887,1.415c0.162,0.221,0.326,0.447,0.494,0.676c0.023,0.02,0.066,0.062,0.13,0.125
		c0.05,0.062,0.107,0.129,0.171,0.205c0.064,0.074,0.12,0.141,0.168,0.198c0.047,0.057,0.068,0.092,0.065,0.105
		c0.171-0.5,0.251-1.016,0.239-1.55s-0.056-1.072-0.129-1.613c-0.046-0.33-0.081-0.653-0.107-0.971
		c-0.017-0.174-0.118-0.905-0.305-2.195c-0.186-1.289-0.236-2.052-0.154-2.288S92.599,129.64,92.823,129.591z"/>
	<path class="st9" d="M98.666,128.038l-0.014,0.061c0.552,1.083,1.146,2.146,1.782,3.187c0.635,1.043,1.357,2.053,2.168,3.033
		c0.094,0.113,0.187,0.234,0.277,0.361c0.128,0.185,0.272,0.369,0.432,0.55c0.16,0.183,0.342,0.342,0.544,0.481l0.181,0.095
		c0.086,0.026,0.158,0.05,0.217,0.071c0.043-0.004,0.08-0.01,0.11-0.017s0.06-0.015,0.091-0.022l-0.021-0.004
		c-0.008,0.005-0.023,0.007-0.049,0.004c-0.023-0.002-0.044-0.006-0.061-0.014c-0.016-0.007-0.016-0.016,0.001-0.026
		c0.091-0.333,0.16-0.622,0.209-0.866s0.081-0.502,0.094-0.776c0.006-0.799-0.033-1.524-0.118-2.174
		c-0.084-0.65-0.182-1.632-0.291-2.947c-0.109-0.45-0.404-2.438-0.885-5.962l0.061-0.401l0.319-0.235l0.013-0.008l0.389,0.068
		l0.242,0.332c0.529,3.622,0.875,5.699,1.035,6.232c0.133,1.277,0.303,2.432,0.513,3.465s0.249,2.08,0.118,3.141
		c-0.027,0.213-0.098,0.464-0.21,0.754c-0.112,0.289-0.282,0.557-0.509,0.802c-0.226,0.246-0.519,0.412-0.879,0.499
		c-0.371,0.071-0.687,0.082-0.948,0.033c-0.261-0.049-0.521-0.132-0.777-0.248c-0.384-0.151-0.751-0.347-1.104-0.587
		s-0.687-0.503-1.003-0.789c-0.625-0.554-1.236-1.263-1.835-2.126s-1.159-1.731-1.683-2.602c-0.942-1.541-1.792-3.135-2.547-4.782
		l-0.031-0.05c-0.859-1.939-1.613-3.913-2.267-5.918c-0.651-2.007-1.112-3.986-1.379-5.938c-0.002-0.022-0.001-0.04,0.001-0.053
		l-0.02-0.143c-0.008-0.03-0.011-0.063-0.01-0.098c-0.043-0.619-0.045-1.233-0.006-1.846c0.036-0.61,0.189-1.18,0.459-1.706
		c0.184-0.242,0.357-0.428,0.521-0.56c0.166-0.132,0.365-0.232,0.601-0.298s0.496-0.063,0.784,0.01
		c0.354,0.124,0.666,0.314,0.937,0.571c0.271,0.257,0.511,0.533,0.719,0.829c0.095,0.114,0.163,0.197,0.208,0.25
		c0.045,0.052,0.091,0.116,0.138,0.19c0.192,0.271,0.376,0.554,0.549,0.849c0.927,1.609,1.65,3.311,2.171,5.105
		c0.52,1.795,0.843,3.639,0.968,5.531C98.96,124.904,98.891,126.468,98.666,128.038z M97.377,125.458l0.042,0.095
		c-0.004-0.043-0.008-0.087-0.013-0.13c0.005-0.049,0.007-0.09,0.008-0.125c-0.044-1.909-0.263-3.789-0.656-5.639
		c-0.394-1.852-1.013-3.636-1.858-5.353c-0.239-0.473-0.504-0.923-0.795-1.351c-0.141-0.224-0.302-0.434-0.482-0.631
		c-0.006-0.008-0.018-0.019-0.036-0.029c-0.04-0.045-0.096-0.102-0.168-0.171c-0.073-0.07-0.147-0.133-0.223-0.189
		c-0.075-0.057-0.139-0.081-0.19-0.071c-0.059,0.037-0.084,0.099-0.081,0.189c0.005,0.089,0.015,0.175,0.032,0.256
		c0.007,0.03,0.012,0.056,0.014,0.078c0.172,1.287,0.431,2.554,0.775,3.802c0.002,0.021,0.008,0.041,0.018,0.057
		c0.355,1.264,0.775,2.505,1.262,3.722c0.697,1.776,1.443,3.527,2.237,5.253C97.299,125.299,97.339,125.378,97.377,125.458z"/>
	<path class="st9" d="M113.893,116.057c0.125-0.078,0.25-0.09,0.376-0.036c0.126,0.053,0.221,0.141,0.285,0.262
		c0.075,0.194,0.11,0.397,0.104,0.608c0.121,2.932,0.161,4.947,0.123,6.043c-0.002,0.07-0.005,0.141-0.007,0.211
		c-0.005,0.58-0.024,1.156-0.057,1.73c-0.032,0.573-0.096,1.144-0.19,1.71c-0.059,0.383-0.143,0.761-0.249,1.133
		c-0.106,0.373-0.263,0.726-0.468,1.062c-0.285,0.444-0.645,0.762-1.078,0.953c-0.434,0.191-0.908,0.252-1.424,0.183
		c-0.383-0.059-0.773-0.216-1.168-0.47c-0.396-0.253-0.773-0.552-1.133-0.897c-0.361-0.345-0.672-0.683-0.938-1.013
		c-0.238-0.289-0.464-0.585-0.678-0.889l-0.016-0.024c-0.23-0.351-0.447-0.705-0.648-1.063l-0.023-0.037
		c-0.539-1.081-0.955-2.205-1.25-3.375s-0.494-2.35-0.596-3.542c-0.064-0.617-0.093-1.261-0.088-1.933
		c0.006-0.672,0.113-1.309,0.322-1.913s0.592-1.108,1.145-1.513c0.227-0.153,0.414-0.25,0.561-0.291
		c0.147-0.04,0.303-0.06,0.465-0.058c0.5-0.013,0.953,0.123,1.362,0.408s0.753,0.646,1.033,1.081
		c0.278,0.437,0.474,0.873,0.587,1.31c0.044,0.145,0.076,0.297,0.096,0.458c0.021,0.161-0.003,0.308-0.068,0.441
		c-0.113,0.187-0.261,0.27-0.441,0.25c-0.18-0.02-0.334-0.098-0.465-0.235c-0.129-0.15-0.22-0.313-0.271-0.487
		c-0.033-0.106-0.07-0.204-0.113-0.292c-0.207-0.367-0.477-0.676-0.808-0.929c-0.13-0.115-0.28-0.213-0.452-0.295
		c-0.174-0.082-0.338-0.063-0.492,0.058c-0.08,0.073-0.148,0.167-0.203,0.283c-0.055,0.115-0.097,0.222-0.127,0.322
		c-0.116,0.476-0.145,0.955-0.086,1.436c0.058,0.587,0.162,1.167,0.313,1.74c0.026,0.134,0.054,0.26,0.083,0.38
		c0.057,0.275,0.125,0.549,0.204,0.823c0.407,1.439,0.97,2.815,1.688,4.128c0.304,0.559,0.627,1.108,0.973,1.647
		c0.343,0.54,0.723,1.048,1.137,1.526c0.006,0.008,0.014,0.021,0.023,0.037c0.078,0.089,0.18,0.196,0.305,0.319
		c0.123,0.125,0.256,0.226,0.397,0.304c0.142,0.078,0.271,0.092,0.388,0.042c0.158-0.099,0.293-0.261,0.404-0.487
		c0.112-0.226,0.198-0.438,0.258-0.637c0.015-0.032,0.025-0.062,0.031-0.089c0.235-0.654,0.379-1.33,0.434-2.026
		c0.053-0.696,0.076-1.399,0.069-2.109c0.003-0.417,0.009-0.83,0.019-1.239c0.005-0.083,0.009-0.179,0.012-0.284
		c-0.012-0.35-0.016-1.177-0.01-2.483C113.549,116.993,113.667,116.246,113.893,116.057z"/>
	<path class="st9" d="M125.779,108.366l0.345,0.165l0.25,0.397c0.014,0.061,0.029,0.123,0.047,0.187s0.041,0.139,0.071,0.224
		c0.024,0.296,0.089,1.2,0.196,2.712c0.039,0.908,0.038,1.822-0.003,2.742c-0.041,0.918-0.171,1.806-0.388,2.662
		c-0.219,0.858-0.572,1.647-1.064,2.371c-0.434,0.595-0.986,1.039-1.655,1.331c-0.669,0.293-1.37,0.369-2.104,0.229
		c-0.708-0.155-1.354-0.442-1.938-0.859s-1.111-0.897-1.578-1.44s-0.864-1.086-1.193-1.629c-0.09-0.162-0.164-0.3-0.224-0.413
		c-0.06-0.112-0.117-0.229-0.176-0.348c-0.058-0.12-0.104-0.22-0.144-0.299c-0.375-0.93-0.633-1.892-0.771-2.887
		c-0.141-0.996-0.133-2.003,0.023-3.023c0.07-0.494,0.187-0.99,0.348-1.488c0.159-0.498,0.404-0.94,0.732-1.324
		c0.33-0.386,0.793-0.655,1.388-0.809c0.499-0.105,0.962-0.036,1.392,0.208s0.789,0.615,1.078,1.114
		c0.29,0.499,0.465,1.081,0.524,1.746c0.088,0.913-0.037,1.795-0.374,2.646c-0.337,0.851-0.85,1.59-1.539,2.218
		c0.125,0.255,0.238,0.473,0.339,0.651c0.101,0.179,0.196,0.35,0.287,0.512c0.327,0.614,0.705,1.186,1.136,1.717
		s0.918,0.897,1.459,1.1l0.254,0.047c0.102-0.005,0.158-0.006,0.172-0.003c0.008-0.005,0.014-0.009,0.019-0.012
		c0.003-0.002,0.015-0.009,0.03-0.02c0.18-0.101,0.328-0.194,0.447-0.28s0.227-0.182,0.32-0.288c0.447-0.557,0.77-1.196,0.967-1.919
		s0.355-1.462,0.471-2.214c0.018-0.103,0.029-0.203,0.037-0.299c0.157-0.871,0.21-2.351,0.158-4.438
		c0.003-0.013,0.004-0.031,0.001-0.053l0.013-0.007c0.018-0.046,0.031-0.092,0.043-0.139c0.01-0.047,0.025-0.111,0.043-0.192
		l0.224-0.417c0.066-0.042,0.118-0.071,0.159-0.091c0.039-0.019,0.076-0.039,0.109-0.06
		C125.743,108.372,125.766,108.363,125.779,108.366z M118.088,112.754c0.036,0.093,0.071,0.192,0.107,0.296s0.089,0.227,0.155,0.37
		c-0.006-0.008-0.002-0.02,0.013-0.034c0.014-0.015,0.032-0.035,0.057-0.062c0.022-0.026,0.046-0.051,0.065-0.075
		c0.02-0.023,0.033-0.039,0.041-0.043c0.063-0.085,0.124-0.17,0.187-0.255c0.11-0.173,0.205-0.353,0.283-0.541
		c0.185-0.369,0.305-0.755,0.362-1.16c0.07-0.458,0.057-0.912-0.039-1.359c-0.048-0.224-0.119-0.438-0.213-0.644
		c-0.074-0.208-0.188-0.39-0.343-0.546c-0.054-0.048-0.114-0.08-0.181-0.095c-0.151-0.021-0.285,0.023-0.402,0.131
		c-0.097,0.084-0.171,0.177-0.223,0.278c-0.191,0.339-0.301,0.707-0.328,1.104c-0.031,0.354-0.016,0.71,0.047,1.068
		c0.063,0.358,0.146,0.712,0.251,1.062C117.987,112.419,118.042,112.588,118.088,112.754z"/>
	<path class="st9" d="M135.889,80.386c0.208,0.146,0.345,0.337,0.412,0.572c0.031,0.291-0.068,0.538-0.305,0.743
		c-0.234,0.205-0.495,0.362-0.783,0.474c-0.351,0.139-0.697,0.275-1.039,0.409c-0.335,0.129-0.662,0.259-0.982,0.391
		c-1.982,0.792-3.889,1.74-5.722,2.842c-1.833,1.103-3.558,2.351-5.174,3.744c0.186,0.241,0.34,0.496,0.462,0.765
		c3.313,7.271,7.295,14.15,11.949,20.638c0.021,0.033,0.039,0.062,0.055,0.087c0.237,0.324,0.465,0.651,0.684,0.98
		c0.219,0.33,0.406,0.676,0.564,1.038c0.195,0.442,0.315,0.909,0.358,1.4c0.005,0.008,0.009,0.023,0.011,0.045
		c0.028,0.248,0.021,0.471-0.021,0.67c-0.043,0.2-0.192,0.323-0.452,0.369c-0.464,0.049-0.915-0.008-1.352-0.172
		c-0.438-0.164-0.831-0.396-1.18-0.696c-0.393-0.331-0.74-0.706-1.043-1.127c-0.305-0.42-0.59-0.852-0.855-1.296
		c-2.068-3.337-4.009-6.746-5.821-10.226c-1.813-3.479-3.421-7.049-4.827-10.709c-0.035-0.093-0.073-0.19-0.113-0.292
		c-2.217,2.184-4.035,4.661-5.457,7.431c-0.161,0.332-0.367,0.627-0.619,0.889c-0.063,0.063-0.146,0.129-0.246,0.198
		c-0.102,0.069-0.204,0.116-0.311,0.143c-0.104,0.025-0.201,0.003-0.291-0.067c-0.051-0.061-0.084-0.133-0.101-0.214
		c-0.122-0.453-0.128-0.913-0.019-1.38c0.111-0.467,0.261-0.91,0.449-1.327c0.799-1.85,1.807-3.571,3.022-5.162
		c1.216-1.592,2.585-3.056,4.11-4.392s3.146-2.548,4.861-3.635c0.55-0.355,1.113-0.697,1.691-1.025
		c0.813-0.486,1.652-0.932,2.518-1.335c0.864-0.404,1.759-0.734,2.682-0.99c0.492-0.135,0.992-0.204,1.504-0.208
		C135.02,79.959,135.481,80.1,135.889,80.386z"/>
	<path class="st9" d="M135.135,95.449c-0.359,0.052-0.672,0.012-0.939-0.12c-0.268-0.132-0.484-0.313-0.65-0.543
		c-0.277-0.368-0.498-0.766-0.662-1.193c-0.143-0.337-0.232-0.674-0.268-1.008c-0.037-0.334,0.061-0.712,0.291-1.134
		c0.063-0.12,0.152-0.228,0.266-0.322c0.144-0.102,0.294-0.147,0.451-0.136c0.156,0.011,0.311,0.056,0.463,0.133
		c0.318,0.158,0.581,0.362,0.791,0.611c0.207,0.25,0.381,0.521,0.519,0.815c0.146,0.289,0.264,0.595,0.353,0.92
		c0.088,0.326,0.104,0.672,0.047,1.042c-0.021,0.094-0.056,0.211-0.101,0.349c-0.046,0.139-0.114,0.265-0.204,0.378
		C135.401,95.357,135.283,95.426,135.135,95.449z M144.58,96.946c0.308-0.135,0.535-0.14,0.683-0.014
		c0.148,0.126,0.383,1.273,0.704,3.44c0.321,2.167,0.487,3.351,0.497,3.552c0.007,0.065,0.015,0.124,0.023,0.176
		c0.014,0.13,0.029,0.258,0.051,0.383c0.105,0.591,0.152,1.206,0.146,1.845c-0.01,0.64-0.189,1.277-0.541,1.912
		c-0.416,0.641-0.947,1.066-1.596,1.276c-0.645,0.209-1.281,0.239-1.905,0.088c-0.608-0.161-1.142-0.406-1.601-0.734
		c-0.46-0.328-0.874-0.694-1.242-1.098c-1.43-1.546-2.479-3.332-3.148-5.356c-0.061-0.17-0.121-0.339-0.182-0.509
		c-0.342-0.915-0.619-1.853-0.83-2.815c-0.139-0.57-0.213-1.158-0.224-1.762c0.036-0.311,0.183-0.518,0.44-0.621
		c0.258-0.104,0.531-0.137,0.82-0.099c0.186,0.021,0.35,0.063,0.492,0.124c0.336,0.169,0.586,0.402,0.748,0.698
		s0.297,0.612,0.404,0.948c0.064,0.213,0.139,0.415,0.223,0.604c0.186,0.425,0.365,0.849,0.537,1.271
		c0.33,0.876,0.725,1.725,1.181,2.545c0.423,0.749,0.962,1.598,1.614,2.549c0.654,0.951,1.313,1.718,1.979,2.303
		c0.173,0.111,0.368,0.115,0.588,0.012c0.218-0.102,0.358-0.259,0.421-0.472c0.002-0.75,0.006-1.363,0.014-1.84
		c0.006-0.477-0.256-3.015-0.787-7.615c0.03-0.135,0.078-0.28,0.142-0.436C144.296,97.147,144.413,97.028,144.58,96.946z"/>
	<path class="st9" d="M151.378,78.683c0.136-0.004,0.235,0.054,0.3,0.175c0.062,0.135,0.047,0.265-0.042,0.39
		c-0.089,0.125-0.191,0.23-0.311,0.316c-2.563,1.963-5.049,4.017-7.461,6.163c2.038,3.713,4.109,7.404,6.215,11.076
		c0.492,0.878,1.006,1.74,1.543,2.585c0.535,0.846,1.135,1.642,1.8,2.39c0.288-0.791,0.445-1.607,0.472-2.448
		c0.026-0.84,0.007-1.689-0.059-2.548c-0.051-0.762-0.074-1.526-0.069-2.29c-0.29-1.731-0.423-2.665-0.398-2.801
		c0.022-0.136,0.077-0.259,0.158-0.367c0.081-0.109,0.188-0.178,0.319-0.208s0.259-0.01,0.384,0.062
		c0.102,0.051,0.178,0.131,0.227,0.238c0.051,0.106,0.087,0.216,0.111,0.328c0.015,0.06,0.033,0.117,0.056,0.172
		c0.392,1.875,0.625,2.956,0.701,3.242c0.162,0.59,0.288,1.186,0.377,1.787c0.156,1.205,0.162,2.411,0.02,3.619
		c-0.051,0.377-0.111,0.75-0.182,1.116c-0.095,0.474-0.252,0.927-0.471,1.358c-0.22,0.432-0.538,0.755-0.957,0.971
		c-0.354,0.152-0.72,0.198-1.098,0.135c-0.381-0.061-0.732-0.198-1.061-0.407c-0.313-0.207-0.598-0.452-0.852-0.737
		c-0.253-0.285-0.493-0.581-0.72-0.888c-1.677-2.234-3.24-4.544-4.69-6.932c-1.449-2.387-2.817-4.826-4.102-7.317
		c-1.652,1.612-3.213,3.315-4.68,5.111c-0.02,0.024-0.045,0.057-0.076,0.099c-0.098,0.12-0.222,0.263-0.369,0.431
		c-0.148,0.168-0.304,0.293-0.465,0.377c-0.16,0.083-0.312,0.078-0.452-0.019c-0.138-0.109-0.193-0.262-0.166-0.458
		c0.026-0.196,0.089-0.391,0.187-0.584s0.186-0.338,0.265-0.434c0.505-0.685,1.038-1.342,1.601-1.971
		c1.133-1.299,2.318-2.543,3.555-3.732c-0.7-1.394-1.38-2.8-2.039-4.219c-0.103-0.201-0.194-0.408-0.277-0.622
		c-0.082-0.214-0.136-0.433-0.162-0.659c-0.018-0.231,0.01-0.456,0.086-0.676c0.075-0.22,0.201-0.402,0.375-0.547
		c0.186-0.127,0.393-0.193,0.619-0.198c0.372-0.014,0.708,0.099,1.008,0.337c0.227,0.18,0.421,0.393,0.582,0.639
		c0.158,0.246,0.304,0.5,0.435,0.764c0.534,1.036,1.081,2.065,1.64,3.086c2.362-2.08,4.859-3.979,7.493-5.699
		c0.095-0.071,0.198-0.125,0.313-0.162C151.174,78.689,151.28,78.675,151.378,78.683z"/>
	<path class="st9" d="M154.605,83.246c-0.358,0.052-0.673,0.012-0.939-0.12s-0.484-0.313-0.651-0.542
		c-0.276-0.368-0.497-0.766-0.661-1.193c-0.143-0.337-0.231-0.674-0.269-1.008c-0.036-0.334,0.061-0.712,0.293-1.134
		c0.063-0.12,0.15-0.228,0.264-0.322c0.145-0.102,0.295-0.147,0.451-0.136c0.157,0.011,0.313,0.056,0.464,0.133
		c0.317,0.158,0.581,0.362,0.79,0.612c0.207,0.25,0.381,0.521,0.52,0.815c0.146,0.289,0.264,0.595,0.352,0.92
		c0.088,0.325,0.104,0.672,0.048,1.042c-0.021,0.094-0.056,0.211-0.101,0.349c-0.047,0.139-0.114,0.265-0.204,0.378
		C154.87,83.155,154.753,83.224,154.605,83.246z M164.049,84.744c0.307-0.135,0.535-0.14,0.683-0.014
		c0.148,0.126,0.383,1.273,0.704,3.44c0.321,2.167,0.486,3.351,0.498,3.552c0.006,0.065,0.014,0.124,0.023,0.175
		c0.012,0.13,0.029,0.259,0.049,0.384c0.106,0.591,0.154,1.206,0.146,1.845c-0.01,0.64-0.189,1.276-0.54,1.912
		c-0.417,0.641-0.947,1.066-1.595,1.276c-0.646,0.209-1.282,0.239-1.906,0.088c-0.608-0.16-1.142-0.405-1.602-0.734
		c-0.459-0.328-0.873-0.694-1.24-1.098c-1.432-1.546-2.48-3.332-3.15-5.356c-0.061-0.17-0.12-0.339-0.181-0.509
		c-0.343-0.915-0.619-1.853-0.831-2.815c-0.139-0.57-0.213-1.158-0.223-1.762c0.036-0.311,0.183-0.518,0.44-0.621
		c0.258-0.104,0.53-0.137,0.819-0.099c0.187,0.021,0.351,0.063,0.492,0.124c0.338,0.169,0.586,0.402,0.749,0.698
		c0.162,0.296,0.297,0.612,0.404,0.948c0.064,0.213,0.139,0.415,0.223,0.604c0.186,0.425,0.364,0.849,0.538,1.271
		c0.33,0.876,0.723,1.725,1.18,2.545c0.423,0.749,0.961,1.598,1.614,2.549s1.313,1.718,1.979,2.303
		c0.174,0.111,0.369,0.115,0.588,0.012c0.217-0.102,0.357-0.259,0.421-0.472c0.002-0.75,0.006-1.363,0.013-1.84
		c0.007-0.477-0.255-3.015-0.787-7.614c0.031-0.135,0.078-0.28,0.143-0.436C163.766,84.945,163.881,84.826,164.049,84.744z"/>
</g>
<g>
</g>
<g>
</g>
<g>
</g>
<g>
</g>
<g>
</g>
<g>
</g>
</svg>
